<svg xmlns="http://www.w3.org/2000/svg" version="1.1" xmlns:xlink="http://www.w3.org/1999/xlink" xmlns:svgjs="http://svgjs.com/svgjs" width="1440" height="560" preserveAspectRatio="none" viewBox="0 0 1440 560"><g mask="url(&quot;#SvgjsMask1074&quot;)" fill="none"><rect width="1440" height="560" x="0" y="0" fill="rgba(43, 129, 214, 1)"></rect><path d="M1560 560L0 560 L0 300.22Q89.39 269.62, 120 359.01Q189.23 308.24, 240 377.47Q261.51 278.98, 360 300.49Q405.75 274.24, 432 319.98Q502.28 270.26, 552 340.54Q602.02 318.56, 624 368.59Q654.8 279.39, 744 310.2Q794.84 241.03, 864 291.87Q930.17 286.04, 936 352.21Q1009.43 305.64, 1056 379.07Q1059.11 310.17, 1128 313.28Q1195.28 260.56, 1248 327.84Q1291.11 250.94, 1368 294.05Q1409.09 263.13, 1440 304.22Q1527.46 271.69, 1560 359.15z" fill="rgba(31, 107, 183, 1)"></path><path d="M1488 560L0 560 L0 363.82Q90.29 334.11, 120 424.4Q143.76 376.16, 192 399.93Q273.73 361.66, 312 443.4Q319.35 378.75, 384 386.1Q438.55 320.65, 504 375.21Q602.1 353.3, 624 451.4Q645.3 400.7, 696 422.01Q714.46 368.47, 768 386.92Q795.27 342.2, 840 369.47Q919.85 329.32, 960 409.16Q1034.91 364.08, 1080 438.99Q1090.54 377.53, 1152 388.07Q1178.14 342.21, 1224 368.35Q1280.52 352.87, 1296 409.39Q1350.68 392.07, 1368 446.75Q1416.87 375.62, 1488 424.48z" fill="rgba(23, 106, 187, 1)"></path><path d="M1536 560L0 560 L0 462.39Q84.26 426.65, 120 510.92Q164.88 435.81, 240 480.69Q251.28 419.97, 312 431.25Q354.12 401.37, 384 443.49Q449.75 389.24, 504 454.99Q590.68 421.68, 624 508.36Q669.84 434.2, 744 480.04Q767.32 431.36, 816 454.68Q870.57 437.25, 888 491.82Q920.59 404.4, 1008 436.99Q1058.59 415.58, 1080 466.16Q1110.23 424.39, 1152 454.62Q1207.38 438, 1224 493.39Q1268.95 466.35, 1296 511.3Q1328.03 423.33, 1416 455.36Q1491.55 410.9, 1536 486.45z" fill="rgba(18, 92, 165, 1)"></path><path d="M1488 560L0 560 L0 577.69Q21.49 527.18, 72 548.68Q95.27 499.95, 144 523.22Q167.93 475.15, 216 499.09Q296.82 459.91, 336 540.74Q360.88 493.63, 408 518.51Q485.38 475.88, 528 553.26Q570.38 523.64, 600 566.02Q632.89 478.91, 720 511.8Q772.07 491.87, 792 543.93Q827.49 459.42, 912 494.91Q984.67 447.58, 1032 520.25Q1111.81 480.06, 1152 559.87Q1200.57 488.43, 1272 537Q1331.82 524.82, 1344 584.64Q1370.68 539.33, 1416 566.01Q1424.34 502.35, 1488 510.68z" fill="rgba(4, 60, 115, 1)"></path></g><defs><mask id="SvgjsMask1074"><rect width="1440" height="560" fill="#ffffff"></rect></mask></defs></svg>